<mxfile host="app.diagrams.net" modified="2023-07-31T04:15:19.553Z" agent="Mozilla/5.0 (Windows NT 10.0; Win64; x64) AppleWebKit/537.36 (KHTML, like Gecko) Chrome/115.0.0.0 Safari/537.36" version="21.6.5" etag="axtYXYx-QhASty9dAoxF" type="github">
  <diagram name="페이지-1" id="dk3z5E4eN4ic8dZi-IIq">
    <mxGraphModel>
      <root>
        <mxCell id="0" />
        <mxCell id="1" parent="0" />
      </root>
    </mxGraphModel>
  </diagram>
</mxfile>
